<?xml version="1.0" encoding="utf-8"?>
<!-- Generator: Adobe Illustrator 19.0.1, SVG Export Plug-In . SVG Version: 6.00 Build 0)  -->
<svg version="1.1" id="healthyindia" 
	 viewBox="0 0 270.7 130" >
<style type="text/css">
	.st0{fill:#00AEEF;}
	.st1{fill:#2E3192;}
	.st2{font-family:'DilleniaUPC';}
	.st3{font-size:39.9922px;}
	.st4{font-family:'DilleniaUPCBold';}
</style>
<path class="st0" d="M58.4,50.5c0,0,13.6-14.3,24.7,3.8c3.8,6.3,6.1,13.9-4.7,29l-11,12.1l0,0l-9-9c0,0,9.5-16.6,10.8-19.5
	C71.1,62.4,74.3,46.6,58.4,50.5z"/>
<path class="st1" d="M25.9,9.9c0,0-12.2,18.5,4.1,51.8c0,0,9.1,21.6,39.6,43.7c0,0,8.4,4.3,0-8.1c0,0-19-16.8-16.6-28
	c0,0-0.9-16.3,24-38.4c0,0,6-6.5-2.4-1c0,0-14.2,13.2-28.9,13.2C45.8,43.2,30.4,43.9,25.9,9.9z"/>
<circle class="st0" cx="46.1" cy="28.7" r="10.6"/>
<path class="st0" d="M42.6,47.3c-0.9-1.6-26.1-7.6-29.7,14c-0.9,5.5-2.6,12.2,16.5,34.8c0,0,17.1,17.7,20.2,19.6l13.9-15
	c0,0-20.1-20.1-25.4-27.8C34.4,67.5,28.8,53.9,42.6,47.3z"/>
<text transform="matrix(1 0 0 1 96.1129 78.5013)"><tspan x="0" y="0" class="st0 st2 st3">Healthy</tspan><tspan x="85.1" y="0" class="st2 st3"> </tspan><tspan x="94" y="0" class="st1 st4 st3">INDIA</tspan></text>
</svg>
